<svg width="24" height="25" viewBox="0 0 24 25" fill="none" xmlns="http://www.w3.org/2000/svg">
<path d="M12 10.2109C11.9 10.2109 11.81 10.1909 11.71 10.1509C11.43 10.0409 11.25 9.76094 11.25 9.46094V2.46094C11.25 2.05094 11.59 1.71094 12 1.71094C12.41 1.71094 12.75 2.05094 12.75 2.46094V7.65094L13.47 6.93094C13.76 6.64094 14.24 6.64094 14.53 6.93094C14.82 7.22094 14.82 7.70094 14.53 7.99094L12.53 9.99094C12.39 10.1309 12.2 10.2109 12 10.2109Z" fill="#FF6200"/>
<path d="M12.0004 10.2114C11.8104 10.2114 11.6204 10.1414 11.4704 9.99137L9.47043 7.99137C9.18043 7.70137 9.18043 7.22137 9.47043 6.93137C9.76043 6.64137 10.2404 6.64137 10.5304 6.93137L12.5304 8.93137C12.8204 9.22137 12.8204 9.70137 12.5304 9.99137C12.3804 10.1414 12.1904 10.2114 12.0004 10.2114Z" fill="#FF6200"/>
<path d="M13.7605 18.2109H10.2305C9.18047 18.2109 8.24047 17.6309 7.77047 16.6909L6.60047 14.3509C6.56047 14.2609 6.47047 14.2109 6.38047 14.2109H1.98047C1.57047 14.2109 1.23047 13.8709 1.23047 13.4609C1.23047 13.0509 1.57047 12.7109 1.98047 12.7109H6.39047C7.06047 12.7109 7.66047 13.0809 7.96047 13.6809L9.13047 16.0209C9.34047 16.4509 9.77047 16.7109 10.2505 16.7109H13.7805C14.2605 16.7109 14.6905 16.4509 14.9005 16.0209L16.0705 13.6809C16.3705 13.0809 16.9705 12.7109 17.6405 12.7109H22.0005C22.4105 12.7109 22.7505 13.0509 22.7505 13.4609C22.7505 13.8709 22.4105 14.2109 22.0005 14.2109H17.6405C17.5405 14.2109 17.4605 14.2609 17.4205 14.3509L16.2505 16.6909C15.7505 17.6309 14.8105 18.2109 13.7605 18.2109Z" fill="#FF6200"/>
<path d="M15 23.2109H9C3.57 23.2109 1.25 20.8909 1.25 15.4609V11.4609C1.25 6.77086 2.99 4.42087 6.89 3.85087C7.31 3.79087 7.68 4.07087 7.74 4.48087C7.8 4.89086 7.52 5.27086 7.11 5.33086C3.97 5.79086 2.75 7.51086 2.75 11.4609V15.4609C2.75 20.0709 4.39 21.7109 9 21.7109H15C19.61 21.7109 21.25 20.0709 21.25 15.4609V11.4609C21.25 7.51086 20.03 5.79086 16.89 5.33086C16.48 5.27086 16.2 4.89086 16.26 4.48087C16.32 4.07087 16.7 3.79087 17.11 3.85087C21.01 4.42087 22.75 6.77086 22.75 11.4609V15.4609C22.75 20.8909 20.43 23.2109 15 23.2109Z" fill="#FF6200"/>
</svg>
