<svg width="40" height="40" viewBox="0 0 40 40" fill="none" xmlns="http://www.w3.org/2000/svg">
<path opacity="0.4" d="M25.7997 5H12.533C6.78301 5 3.33301 8.43333 3.33301 14.2V27.45C3.33301 33.2333 6.78301 36.6667 12.533 36.6667H25.783C31.5497 36.6667 34.983 33.2333 34.983 27.4667V14.2C34.9997 8.43333 31.5497 5 25.7997 5Z" fill="#FF6200"/>
<path d="M35.0344 4.96648C32.0511 1.96648 29.1344 1.89981 26.0678 4.96648L24.1844 6.83314C24.0178 6.99981 23.9678 7.23314 24.0344 7.44981C25.2011 11.5331 28.4678 14.7998 32.5511 15.9665C32.6011 15.9831 32.6844 15.9831 32.7344 15.9831C32.9011 15.9831 33.0678 15.9165 33.1844 15.7998L35.0344 13.9331C36.5511 12.4165 37.3011 10.9665 37.3011 9.48314C37.3011 7.98314 36.5511 6.49981 35.0344 4.96648Z" fill="#FF6200"/>
<path d="M29.7672 17.3666C29.3172 17.1499 28.8838 16.9332 28.4838 16.6832C28.1505 16.4832 27.8172 16.2666 27.5005 16.0332C27.2338 15.8666 26.9338 15.6166 26.6338 15.3666C26.6005 15.3499 26.5005 15.2666 26.3672 15.1332C25.8505 14.7166 25.3005 14.1499 24.7838 13.5332C24.7505 13.4999 24.6505 13.3999 24.5672 13.2499C24.4005 13.0666 24.1505 12.7499 23.9338 12.3999C23.7505 12.1666 23.5338 11.8332 23.3338 11.4832C23.0838 11.0666 22.8672 10.6499 22.6672 10.2166C22.4505 9.7499 22.2838 9.31657 22.1338 8.8999L13.1672 17.8666C12.5838 18.4499 12.0172 19.5499 11.9005 20.3666L11.1838 25.3332C11.0338 26.3832 11.3172 27.3666 11.9672 28.0166C12.5172 28.5666 13.2672 28.8499 14.1005 28.8499C14.2838 28.8499 14.4672 28.8332 14.6505 28.8166L19.6005 28.1166C20.4172 27.9999 21.5172 27.4499 22.1005 26.8499L31.0672 17.8832C30.6505 17.7499 30.2338 17.5666 29.7672 17.3666Z" fill="#FF6200"/>
</svg>
