<svg width="31" height="31" viewBox="0 0 31 31" fill="none" xmlns="http://www.w3.org/2000/svg">
<path opacity="0.4" d="M23.301 17.5014C22.7585 18.031 22.4485 18.7931 22.526 19.6068C22.6423 21.0018 23.921 22.0222 25.316 22.0222H27.7702V23.5593C27.7702 26.2331 25.5873 28.416 22.9135 28.416H8.08518C5.41143 28.416 3.22852 26.2331 3.22852 23.5593V14.8664C3.22852 12.1927 5.41143 10.0098 8.08518 10.0098H22.9135C25.5873 10.0098 27.7702 12.1927 27.7702 14.8664V16.7264H25.161C24.4377 16.7264 23.7789 17.0106 23.301 17.5014Z" fill="#FF6200"/>
<path d="M19.1806 5.10169V10.01H8.08518C5.41143 10.01 3.22852 12.1929 3.22852 14.8667V10.1263C3.22852 8.58921 4.17143 7.21999 5.60518 6.67749L15.861 2.80249C17.4627 2.20832 19.1806 3.38378 19.1806 5.10169Z" fill="#FF6200"/>
<path d="M29.1407 18.044V20.7049C29.1407 21.4153 28.5724 21.9965 27.8491 22.0224H25.3174C23.9224 22.0224 22.6437 21.002 22.5274 19.607C22.4499 18.7932 22.7599 18.0311 23.3024 17.5015C23.7803 17.0107 24.4391 16.7266 25.1624 16.7266H27.8491C28.5724 16.7524 29.1407 17.3336 29.1407 18.044Z" fill="#FF6200"/>
<path d="M18.0827 16.4688H9.04102C8.51143 16.4688 8.07227 16.0296 8.07227 15.5C8.07227 14.9704 8.51143 14.5312 9.04102 14.5312H18.0827C18.6123 14.5312 19.0514 14.9704 19.0514 15.5C19.0514 16.0296 18.6123 16.4688 18.0827 16.4688Z" fill="#FF6200"/>
</svg>
