<svg width="26" height="26" viewBox="0 0 26 26" fill="none" xmlns="http://www.w3.org/2000/svg">
<path opacity="0.4" d="M8.28695 22.652C8.25445 22.652 8.21112 22.6737 8.17862 22.6737C6.07695 21.6337 4.36529 19.9112 3.31445 17.8095C3.31445 17.777 3.33612 17.7337 3.33612 17.7012C4.65779 18.0912 6.02279 18.3837 7.37695 18.6112C7.61529 19.9762 7.89695 21.3303 8.28695 22.652Z" fill="#FF6200"/>
<path opacity="0.4" d="M22.685 17.8203C21.6125 19.9762 19.825 21.7203 17.6475 22.7712C18.0591 21.3953 18.4058 20.0087 18.6333 18.6112C19.9983 18.3837 21.3416 18.0912 22.6633 17.7012C22.6525 17.7445 22.685 17.7878 22.685 17.8203Z" fill="#FF6200"/>
<path opacity="0.4" d="M22.7716 8.35268C21.4066 7.94102 20.0308 7.60518 18.6333 7.36685C18.4058 5.96935 18.07 4.58268 17.6475 3.22852C19.89 4.30102 21.6991 6.11018 22.7716 8.35268Z" fill="#FF6200"/>
<path opacity="0.4" d="M8.28768 3.34891C7.89768 4.67057 7.61602 6.01391 7.38852 7.37891C5.99102 7.59557 4.60435 7.94224 3.22852 8.35391C4.27935 6.17641 6.02352 4.38891 8.17935 3.31641C8.21185 3.31641 8.25518 3.34891 8.28768 3.34891Z" fill="#FF6200"/>
<path d="M16.7804 7.13852C14.2671 6.85685 11.7321 6.85685 9.21875 7.13852C9.48958 5.65435 9.83625 4.17018 10.3237 2.74018C10.3454 2.65352 10.3346 2.58852 10.3454 2.50185C11.2013 2.29602 12.0787 2.16602 12.9996 2.16602C13.9096 2.16602 14.7979 2.29602 15.6429 2.50185C15.6537 2.58852 15.6538 2.65352 15.6754 2.74018C16.1629 4.18102 16.5096 5.65435 16.7804 7.13852Z" fill="#FF6200"/>
<path d="M7.13949 16.7804C5.64449 16.5096 4.17116 16.1629 2.74116 15.6754C2.65449 15.6538 2.58949 15.6646 2.50283 15.6537C2.29699 14.7979 2.16699 13.9204 2.16699 12.9996C2.16699 12.0896 2.29699 11.2013 2.50283 10.3563C2.58949 10.3454 2.65449 10.3454 2.74116 10.3237C4.18199 9.84708 5.64449 9.48958 7.13949 9.21875C6.86866 11.7321 6.86866 14.2671 7.13949 16.7804Z" fill="#FF6200"/>
<path d="M23.8338 12.9996C23.8338 13.9204 23.7038 14.7979 23.498 15.6537C23.4113 15.6646 23.3463 15.6538 23.2597 15.6754C21.8188 16.1521 20.3455 16.5096 18.8613 16.7804C19.143 14.2671 19.143 11.7321 18.8613 9.21875C20.3455 9.48958 21.8297 9.83625 23.2597 10.3237C23.3463 10.3454 23.4113 10.3563 23.498 10.3563C23.7038 11.2121 23.8338 12.0896 23.8338 12.9996Z" fill="#FF6200"/>
<path d="M16.7804 18.8613C16.5096 20.3563 16.1629 21.8297 15.6754 23.2597C15.6538 23.3463 15.6537 23.4113 15.6429 23.498C14.7979 23.7038 13.9096 23.8338 12.9996 23.8338C12.0787 23.8338 11.2013 23.7038 10.3454 23.498C10.3346 23.4113 10.3454 23.3463 10.3237 23.2597C9.84708 21.8188 9.48958 20.3563 9.21875 18.8613C10.4754 19.0022 11.7321 19.0997 12.9996 19.0997C14.2671 19.0997 15.5346 19.0022 16.7804 18.8613Z" fill="#FF6200"/>
<path d="M17.0773 17.0763C14.3677 17.4181 11.6329 17.4181 8.92338 17.0763C8.58153 14.3668 8.58153 11.6319 8.92338 8.92241C11.6329 8.58055 14.3677 8.58055 17.0773 8.92241C17.4191 11.6319 17.4191 14.3668 17.0773 17.0763Z" fill="#FF6200"/>
</svg>
