<svg width="40" height="40" viewBox="0 0 40 40" fill="none" xmlns="http://www.w3.org/2000/svg">
<path opacity="0.4" d="M32.1663 13.2V21.7833C32.1663 26.9167 29.2329 29.1166 24.8329 29.1166H10.1829C9.43293 29.1166 8.71627 29.05 8.0496 28.9C7.63293 28.8334 7.23295 28.7167 6.86628 28.5834C4.36628 27.65 2.84961 25.4833 2.84961 21.7833V13.2C2.84961 8.06664 5.78293 5.8667 10.1829 5.8667H24.8329C28.5663 5.8667 31.2496 7.45002 31.9663 11.0667C32.0829 11.7334 32.1663 12.4166 32.1663 13.2Z" fill="#FF6200"/>
<path d="M37.1675 18.2002V26.7835C37.1675 31.9169 34.2341 34.1168 29.8341 34.1168H15.1841C13.9508 34.1168 12.8341 33.9502 11.8675 33.5836C9.88413 32.8502 8.53411 31.3336 8.05078 28.9002C8.71745 29.0502 9.43411 29.1168 10.1841 29.1168H24.8341C29.2341 29.1168 32.1675 26.9169 32.1675 21.7835V13.2002C32.1675 12.4168 32.1008 11.7169 31.9675 11.0669C35.1341 11.7336 37.1675 13.9668 37.1675 18.2002Z" fill="#FF6200"/>
<path d="M17.5016 21.8997C19.9316 21.8997 21.9016 19.9297 21.9016 17.4996C21.9016 15.0696 19.9316 13.0996 17.5016 13.0996C15.0715 13.0996 13.1016 15.0696 13.1016 17.4996C13.1016 19.9297 15.0715 21.8997 17.5016 21.8997Z" fill="#FF6200"/>
<path d="M7.9668 13.75C7.28346 13.75 6.7168 14.3167 6.7168 15V20C6.7168 20.6833 7.28346 21.25 7.9668 21.25C8.65013 21.25 9.2168 20.6833 9.2168 20V15C9.2168 14.3167 8.6668 13.75 7.9668 13.75Z" fill="#FF6200"/>
<path d="M27.0176 13.75C26.3342 13.75 25.7676 14.3167 25.7676 15V20C25.7676 20.6833 26.3342 21.25 27.0176 21.25C27.7009 21.25 28.2676 20.6833 28.2676 20V15C28.2676 14.3167 27.7176 13.75 27.0176 13.75Z" fill="#FF6200"/>
</svg>
