<svg width="27" height="27" viewBox="0 0 27 27" fill="none" xmlns="http://www.w3.org/2000/svg">
<path opacity="0.4" d="M18.1326 2.24023H8.75819C4.68139 2.24023 2.25098 4.67063 2.25098 8.74743V18.1218C2.25098 22.1986 4.68139 24.629 8.75819 24.629H18.1326C22.2094 24.629 24.6398 22.1986 24.6398 18.1218V8.74743C24.6398 4.67063 22.2094 2.24023 18.1326 2.24023Z" fill="#FF6200"/>
<path d="M17.9196 10.3484H20.1596C20.7756 10.3484 21.2796 9.8444 21.2796 9.2284V8.95961C21.2796 7.10041 19.7788 5.59961 17.9196 5.59961H8.95961C7.10041 5.59961 5.59961 7.10041 5.59961 8.95961V9.51961C5.59961 10.1356 6.10361 10.6396 6.71961 10.6396H8.22041C9.68761 10.6396 11.0204 11.6924 11.166 13.1596C11.334 14.8396 10.0236 16.2508 8.3772 16.2508H6.71961C6.10361 16.2508 5.59961 16.7548 5.59961 17.3708V17.9308C5.59961 19.79 7.10041 21.2908 8.95961 21.2908H17.9196C19.7788 21.2908 21.2796 19.79 21.2796 17.9308V17.6508C21.2796 17.0348 20.7756 16.5308 20.1596 16.5308H17.9196C17.4604 16.5308 17.0796 16.15 17.0796 15.6908C17.0796 15.2316 17.4604 14.8508 17.9196 14.8508H20.1596C20.7756 14.8508 21.2796 14.3468 21.2796 13.7308V13.1596C21.2796 12.5436 20.7756 12.0396 20.1596 12.0396H17.9196C17.4604 12.0396 17.0796 11.67 17.0796 11.1996C17.0796 10.7292 17.4604 10.3484 17.9196 10.3484Z" fill="#FF6200"/>
<path d="M7.83961 14.5603H6.71961C6.10361 14.5603 5.59961 14.0563 5.59961 13.4403C5.59961 12.8243 6.10361 12.3203 6.71961 12.3203H7.83961C8.45561 12.3203 8.95961 12.8243 8.95961 13.4403C8.95961 14.0563 8.45561 14.5603 7.83961 14.5603Z" fill="#FF6200"/>
</svg>
