<svg width="40" height="40" viewBox="0 0 40 40" fill="none" xmlns="http://www.w3.org/2000/svg">
<path opacity="0.8" d="M21.5013 4.19999L21.4513 4.31665L16.618 15.5333H11.868C10.7346 15.5333 9.66797 15.75 8.66797 16.1833L11.5846 9.21665L11.6513 9.06665L11.7513 8.79999C11.8013 8.68332 11.8346 8.58332 11.8846 8.49999C14.068 3.44999 16.5346 2.29999 21.5013 4.19999Z" fill="#FF6200"/>
<path d="M30.4839 15.8669C29.7339 15.6502 28.9505 15.5335 28.1339 15.5335H16.6172L21.4505 4.31686L21.5005 4.2002C21.7339 4.28353 21.9839 4.4002 22.2339 4.48353L25.9172 6.03353C27.9672 6.88353 29.4005 7.76686 30.2839 8.83353C30.4339 9.03353 30.5672 9.21686 30.7005 9.43353C30.8505 9.66686 30.9672 9.9002 31.0339 10.1502C31.1005 10.3002 31.1505 10.4335 31.1839 10.5835C31.6172 12.0002 31.3505 13.7169 30.4839 15.8669Z" fill="#FF6200"/>
<path opacity="0.4" d="M36.2677 23.6665V26.9165C36.2677 27.2499 36.251 27.5832 36.2344 27.8999C35.9177 33.7332 32.6677 36.6665 26.501 36.6665H13.501C13.0844 36.6665 12.701 36.6332 12.3177 36.5832C7.01771 36.2332 4.18437 33.3999 3.81771 28.0999C3.76771 27.6999 3.73438 27.3165 3.73438 26.9165V23.6665C3.73438 20.3165 5.76771 17.4332 8.66771 16.1832C9.66771 15.7499 10.7344 15.5332 11.8677 15.5332H28.1344C28.951 15.5332 29.7344 15.6499 30.4844 15.8665C33.8177 16.8832 36.2677 19.9832 36.2677 23.6665Z" fill="#FF6200"/>
<path opacity="0.6" d="M11.5844 9.21631L8.66771 16.183C5.76771 17.433 3.73438 20.3163 3.73438 23.6663V18.783C3.73438 14.0496 7.10104 10.0996 11.5844 9.21631Z" fill="#FF6200"/>
<path opacity="0.6" d="M36.2677 18.7832V23.6666C36.2677 19.9832 33.8177 16.8832 30.4844 15.8666C31.351 13.7166 31.6177 11.9999 31.1844 10.5832C31.151 10.4332 31.101 10.2999 31.0344 10.1499C34.151 11.7666 36.2677 15.0499 36.2677 18.7832Z" fill="#FF6200"/>
<path d="M24.1673 24.4832H21.2507V21.6665C21.2507 20.9832 20.684 20.4165 20.0007 20.4165C19.3173 20.4165 18.7507 20.9832 18.7507 21.6665V24.4832H15.834C15.1507 24.4832 14.584 25.0498 14.584 25.7332C14.584 26.4165 15.1507 26.9832 15.834 26.9832H18.7507V29.9998C18.7507 30.6832 19.3173 31.2498 20.0007 31.2498C20.684 31.2498 21.2507 30.6832 21.2507 29.9998V26.9832H24.1673C24.8507 26.9832 25.4173 26.4165 25.4173 25.7332C25.4173 25.0498 24.8507 24.4832 24.1673 24.4832Z" fill="#FF6200"/>
</svg>
