<svg width="21" height="24" viewBox="0 0 21 24" fill="none" xmlns="http://www.w3.org/2000/svg">
<path d="M16.9832 23.04C15.6766 24.3067 14.2499 24.1067 12.8766 23.5067C11.4232 22.8933 10.0899 22.8667 8.55656 23.5067C6.63656 24.3333 5.62323 24.0933 4.47656 23.04C-2.03011 16.3333 -1.07011 6.12 6.31656 5.74667C8.11656 5.84 9.36989 6.73333 10.4232 6.81333C11.9966 6.49333 13.5032 5.57333 15.1832 5.69333C17.1966 5.85333 18.7166 6.65333 19.7166 8.09333C15.5566 10.5867 16.5432 16.0667 20.3566 17.6C19.5966 19.6 18.6099 21.5867 16.9699 23.0533L16.9832 23.04ZM10.2899 5.66667C10.0899 2.69333 12.5032 0.24 15.2766 0C15.6632 3.44 12.1566 6 10.2899 5.66667Z" fill="black"/>
</svg>
