<svg width="21" height="20" viewBox="0 0 21 20" fill="none" xmlns="http://www.w3.org/2000/svg">
<g clip-path="url(#clip0_86_3914)">
<path d="M7.21721 0.658267C5.2189 1.3515 3.49556 2.66728 2.30032 4.41233C1.10508 6.15739 0.500946 8.23974 0.576651 10.3535C0.652355 12.4673 1.40391 14.5011 2.72092 16.1562C4.03794 17.8113 5.85099 19.0004 7.89377 19.5489C9.5499 19.9762 11.285 19.995 12.95 19.6036C14.4583 19.2648 15.8528 18.5401 16.9969 17.5005C18.1876 16.3854 19.052 14.9668 19.4969 13.3973C19.9805 11.6906 20.0666 9.89566 19.7485 8.15045H10.4485V12.0083H15.8344C15.7268 12.6236 15.4961 13.2108 15.1562 13.7349C14.8163 14.2589 14.3742 14.7091 13.8563 15.0583C13.1986 15.4933 12.4572 15.786 11.6797 15.9176C10.8999 16.0626 10.1001 16.0626 9.32033 15.9176C8.53 15.7542 7.78236 15.428 7.12502 14.9598C6.069 14.2123 5.27608 13.1503 4.8594 11.9255C4.43567 10.6776 4.43567 9.32484 4.8594 8.07702C5.156 7.20235 5.64632 6.40598 6.29377 5.74733C7.0347 4.97975 7.97273 4.43108 9.00495 4.16151C10.0372 3.89195 11.1237 3.91191 12.1453 4.2192C12.9434 4.46419 13.6732 4.89223 14.2766 5.4692C14.8839 4.86504 15.4901 4.25931 16.0953 3.65202C16.4078 3.32545 16.7485 3.01452 17.0563 2.68014C16.1353 1.82307 15.0542 1.15617 13.875 0.717642C11.7277 -0.0620611 9.37811 -0.0830148 7.21721 0.658267Z" fill="white"/>
<path d="M7.21758 0.657073C9.3783 -0.0847125 11.7279 -0.0643102 13.8754 0.714886C15.0548 1.15639 16.1354 1.82651 17.0551 2.68676C16.7426 3.02114 16.4129 3.33364 16.0941 3.65864C15.4879 4.26384 14.8822 4.86697 14.277 5.46801C13.6736 4.89104 12.9438 4.463 12.1457 4.21801C11.1244 3.90964 10.0379 3.88852 9.00542 4.15698C7.97292 4.42544 7.03432 4.97311 6.29258 5.73989C5.64513 6.39854 5.15481 7.19491 4.8582 8.06957L1.61914 5.56176C2.77853 3.26264 4.78594 1.50399 7.21758 0.657073Z" fill="#E33629"/>
<path d="M0.760152 8.04688C0.934247 7.18405 1.22328 6.34848 1.61953 5.5625L4.85859 8.07656C4.43486 9.32438 4.43486 10.6772 4.85859 11.925C3.77942 12.7583 2.69974 13.5958 1.61953 14.4375C0.627575 12.463 0.325047 10.2133 0.760152 8.04688Z" fill="#F8BD00"/>
<path d="M10.448 8.14844H19.748C20.0661 9.89365 19.98 11.6885 19.4964 13.3953C19.0515 14.9648 18.1871 16.3834 16.9964 17.4984C15.9511 16.6828 14.9011 15.8734 13.8558 15.0578C14.374 14.7082 14.8163 14.2576 15.1563 13.733C15.4962 13.2084 15.7266 12.6205 15.8339 12.0047H10.448C10.4464 10.7203 10.448 9.43437 10.448 8.14844Z" fill="#587DBD"/>
<path d="M1.61719 14.4383C2.6974 13.6049 3.77708 12.7674 4.85625 11.9258C5.27376 13.1511 6.06782 14.2131 7.125 14.9602C7.78439 15.4262 8.53364 15.7497 9.325 15.9102C10.1048 16.0551 10.9046 16.0551 11.6844 15.9102C12.4619 15.7785 13.2033 15.4858 13.8609 15.0508C14.9062 15.8664 15.9563 16.6758 17.0016 17.4914C15.8576 18.5316 14.4632 19.2568 12.9547 19.5961C11.2897 19.9875 9.55457 19.9687 7.89844 19.5414C6.5886 19.1917 5.36512 18.5751 4.30469 17.7305C3.18228 16.8394 2.26556 15.7164 1.61719 14.4383Z" fill="#319F43"/>
</g>
<defs>
<clipPath id="clip0_86_3914">
<rect width="20" height="20" fill="white" transform="translate(0.25)"/>
</clipPath>
</defs>
</svg>
