<svg xmlns="http://www.w3.org/2000/svg" viewBox="0 0 25 25" fill="none">
  <path opacity="0.4" d="M21 10.9048H18.11C15.74 10.9048 13.81 8.97484 13.81 6.60484V3.71484C13.81 3.16484 13.36 2.71484 12.81 2.71484H8.57C5.49 2.71484 3 4.71484 3 8.28484V17.1448C3 20.7148 5.49 22.7148 8.57 22.7148H16.43C19.51 22.7148 22 20.7148 22 17.1448V11.9048C22 11.3548 21.55 10.9048 21 10.9048Z" fill="currentColor"/>
  <path d="M16.2997 2.92533C15.8897 2.51533 15.1797 2.79533 15.1797 3.36533V6.85532C15.1797 8.31532 16.4197 9.52533 17.9297 9.52533C18.8797 9.53533 20.1997 9.53532 21.3297 9.53532C21.8997 9.53532 22.1997 8.86532 21.7997 8.46532C20.3597 7.01532 17.7797 4.40533 16.2997 2.92533Z" fill="currentColor"/>
  <path d="M14 14.4648H8C7.59 14.4648 7.25 14.1248 7.25 13.7148C7.25 13.3048 7.59 12.9648 8 12.9648H14C14.41 12.9648 14.75 13.3048 14.75 13.7148C14.75 14.1248 14.41 14.4648 14 14.4648Z" fill="currentColor"/>
  <path d="M12 18.4648H8C7.59 18.4648 7.25 18.1248 7.25 17.7148C7.25 17.3048 7.59 16.9648 8 16.9648H12C12.41 16.9648 12.75 17.3048 12.75 17.7148C12.75 18.1248 12.41 18.4648 12 18.4648Z" fill="currentColor"/>
</svg>