<svg width="25" height="25" viewBox="0 0 25 25" fill="none" xmlns="http://www.w3.org/2000/svg">
<path opacity="0.4" d="M18.54 14.2648C18.12 14.6748 17.88 15.2648 17.94 15.8948C18.03 16.9748 19.02 17.7648 20.1 17.7648H22V18.9548C22 21.0248 20.31 22.7148 18.24 22.7148H6.76C4.69 22.7148 3 21.0248 3 18.9548V12.2249C3 10.1549 4.69 8.46484 6.76 8.46484H18.24C20.31 8.46484 22 10.1549 22 12.2249V13.6649H19.98C19.42 13.6649 18.91 13.8848 18.54 14.2648Z" fill="#292D32"/>
<path d="M15.35 4.66448V8.46447H6.76C4.69 8.46447 3 10.1545 3 12.2245V8.55449C3 7.36449 3.73 6.30445 4.84 5.88445L12.78 2.88445C14.02 2.42445 15.35 3.33448 15.35 4.66448Z" fill="#292D32"/>
<path d="M23.0598 14.685V16.7451C23.0598 17.2951 22.6198 17.745 22.0598 17.765H20.0998C19.0198 17.765 18.0298 16.975 17.9398 15.895C17.8798 15.265 18.1198 14.675 18.5398 14.265C18.9098 13.885 19.4198 13.665 19.9798 13.665H22.0598C22.6198 13.685 23.0598 14.135 23.0598 14.685Z" fill="#292D32"/>
<path d="M14.5 13.4648H7.5C7.09 13.4648 6.75 13.1248 6.75 12.7148C6.75 12.3048 7.09 11.9648 7.5 11.9648H14.5C14.91 11.9648 15.25 12.3048 15.25 12.7148C15.25 13.1248 14.91 13.4648 14.5 13.4648Z" fill="#292D32"/>
</svg>
