<svg xmlns="http://www.w3.org/2000/svg" width="25" height="25" viewBox="0 0 25 25" fill="none">
  <path d="M20.5402 7.53454L14.7802 3.50454C13.2102 2.40454 10.8002 2.46454 9.29023 3.63454L4.28023 7.54454C3.28023 8.32454 2.49023 9.92454 2.49023 11.1845V18.0845C2.49023 20.6345 4.56023 22.7145 7.11023 22.7145H17.8902C20.4402 22.7145 22.5102 20.6445 22.5102 18.0945V11.3145C22.5102 9.96454 21.6402 8.30454 20.5402 7.53454ZM13.2502 18.7145C13.2502 19.1245 12.9102 19.4645 12.5002 19.4645C12.0902 19.4645 11.7502 19.1245 11.7502 18.7145V15.7145C11.7502 15.3045 12.0902 14.9645 12.5002 14.9645C12.9102 14.9645 13.2502 15.3045 13.2502 15.7145V18.7145Z" fill="currentColor"/>
</svg>