<svg xmlns="http://www.w3.org/2000/svg" width="25" height="25" viewBox="0 0 25 25" fill="none">
  <path opacity="0.4" d="M2.5 13.5953V11.8353C2.5 10.7953 3.35 9.93527 4.4 9.93527C6.21 9.93527 6.95 8.65527 6.04 7.08527C5.52 6.18527 5.83 5.01527 6.74 4.49527L8.47 3.50527C9.26 3.03527 10.28 3.31527 10.75 4.10527L10.86 4.29527C11.76 5.86527 13.24 5.86527 14.15 4.29527L14.26 4.10527C14.73 3.31527 15.75 3.03527 16.54 3.50527L18.27 4.49527C19.18 5.01527 19.49 6.18527 18.97 7.08527C18.06 8.65527 18.8 9.93527 20.61 9.93527C21.65 9.93527 22.51 10.7853 22.51 11.8353V13.5953C22.51 14.6353 21.66 15.4953 20.61 15.4953C18.8 15.4953 18.06 16.7753 18.97 18.3453C19.49 19.2553 19.18 20.4153 18.27 20.9353L16.54 21.9253C15.75 22.3953 14.73 22.1153 14.26 21.3253L14.15 21.1353C13.25 19.5653 11.77 19.5653 10.86 21.1353L10.75 21.3253C10.28 22.1153 9.26 22.3953 8.47 21.9253L6.74 20.9353C5.83 20.4153 5.52 19.2453 6.04 18.3453C6.95 16.7753 6.21 15.4953 4.4 15.4953C3.35 15.4953 2.5 14.6353 2.5 13.5953Z" fill="currentColor"/>
  <path d="M12.5 15.9648C14.2949 15.9648 15.75 14.5098 15.75 12.7148C15.75 10.9199 14.2949 9.46484 12.5 9.46484C10.7051 9.46484 9.25 10.9199 9.25 12.7148C9.25 14.5098 10.7051 15.9648 12.5 15.9648Z" fill="currentColor"/>
</svg>